<svg width="46" height="46" viewBox="0 0 46 46" fill="none" xmlns="http://www.w3.org/2000/svg">
  <path
    d="M43.6 23.5c0-1.26-.11-2.47-.32-3.64H23v6.88h11.6c-.5 2.56-2.07 4.74-4.42 6.2v5.17h7.16C41.4 34.29 43.6 29.35 43.6 23.5Z"
    fill="#4285F4"
  />
  <path
    d="M23 44c5.8 0 10.66-1.96 14.21-5.28l-7.16-5.17c-1.98 1.32-4.52 2.09-7.05 2.09-5.43 0-10.03-3.67-11.68-8.63H3.9v5.35C7.52 38.56 14.63 44 23 44Z"
    fill="#34A853"
  />
  <path
    d="M11.32 27.01A13.14 13.14 0 0 1 10.66 23c0-1.37.24-2.7.66-3.97V13.68H3.9C2.66 16.2 2 19.02 2 22s.66 5.8 1.9 8.32l7.42-3.31Z"
    fill="#FBBC05"
  />
  <path
    d="M23 9.8c3.14 0 5.28 1.35 6.49 2.47l4.76-4.76C32.28 4.77 27.99 3 23 3 14.63 3 7.52 8.44 3.9 15.68l7.42 3.31C12.97 13.47 17.57 9.8 23 9.8Z"
    fill="#EA4335"
  />
</svg>
